<svg viewBox="0 0 1280 1200" xmlns="http://www.w3.org/2000/svg" font-family="Inter, system-ui, sans-serif">
<defs>
<style>
 .site{cursor:pointer}
 .site rect{transition:filter .15s}
 .site:hover rect{filter:brightness(1.15)}
 .num{font-size:8.5px;font-weight:600;fill:#fff;text-anchor:middle;dominant-baseline:central;pointer-events:none;font-family:'JetBrains Mono',monospace}
 .lbl{font-family:'JetBrains Mono',monospace;letter-spacing:.12em;text-transform:uppercase}
</style>
<filter id="sf" x="-30%" y="-30%" width="160%" height="160%"><feDropShadow dx="0" dy="2" stdDeviation="3" flood-color="#000" flood-opacity="0.2"/></filter>
<marker id="arrow" viewBox="0 0 10 10" refX="7" refY="5" markerWidth="6" markerHeight="6" orient="auto-start-reverse">
  <path d="M0,0 L10,5 L0,10 z" fill="#C26A1F"/></marker>
</defs>
<rect width="1280" height="1200" rx="18" fill="#23401f"/>
<polygon points="260,150 251,213 221,276 151,287 88,289 29,264 4,206 -23,150 -14,86 23,28 92,29 150,20 197,53 261,82" fill="#2d4f28" opacity="0.9"/>
<polygon points="241,500 200,553 192,628 126,659 57,646 -2,615 -25,555 -31,500 -40,438 14,404 61,375 119,372 166,405 217,439" fill="#2d4f28" opacity="0.9"/>
<polygon points="269,950 272,1023 215,1070 155,1105 86,1098 20,1075 -15,1015 -21,950 -38,874 10,813 83,786 156,792 209,838 245,890" fill="#2d4f28" opacity="0.9"/>
<polygon points="671,1130 646,1191 629,1267 555,1282 480,1305 423,1252 353,1210 341,1130 397,1071 429,1015 479,952 556,974 636,985 661,1062" fill="#2d4f28" opacity="0.9"/>
<polygon points="1098,1120 1110,1197 1066,1265 985,1275 917,1265 849,1247 773,1205 765,1120 815,1055 852,997 917,974 983,976 1067,974 1088,1053" fill="#2d4f28" opacity="0.9"/>
<polygon points="1345,820 1323,889 1271,934 1219,989 1148,959 1075,952 1052,882 1023,820 1048,756 1087,703 1139,639 1219,647 1274,702 1343,741" fill="#2d4f28" opacity="0.9"/>
<polygon points="1338,430 1332,494 1305,562 1235,585 1170,559 1091,567 1075,490 1060,430 1051,358 1110,318 1168,291 1229,302 1283,327 1341,362" fill="#2d4f28" opacity="0.9"/>
<polygon points="1251,120 1252,184 1205,227 1151,257 1084,279 1032,231 989,183 961,120 1004,64 1041,21 1084,-37 1155,-33 1202,17 1236,64" fill="#2d4f28" opacity="0.9"/>
<polygon points="843,70 836,136 775,164 734,218 667,215 614,177 583,126 584,70 598,21 605,-49 673,-49 732,-68 777,-26 832,6" fill="#2d4f28" opacity="0.9"/>
<polygon points="457,70 434,120 399,157 359,199 306,174 260,158 217,125 193,70 215,14 258,-20 299,-66 355,-39 395,-12 433,20" fill="#2d4f28" opacity="0.9"/>
<path d="M250,150 Q520,90 760,150 Q1020,150 1180,250 Q1240,470 1150,720 Q1060,930 800,940 Q560,1010 470,900 Q300,860 250,700 Q170,470 250,150 Z" fill="#bcd09a"/>
<path d="M600,1190 L612,980 Q616,880 660,840" fill="none" stroke="#b9a884" stroke-width="29" stroke-linecap="round" stroke-linejoin="round"/>
<path d="M600,1190 L612,980 Q616,880 660,840" fill="none" stroke="#D9CBB0" stroke-width="24" stroke-linecap="round" stroke-linejoin="round"/>
<path d="M660,840 Q470,860 360,760" fill="none" stroke="#b9a884" stroke-width="29" stroke-linecap="round" stroke-linejoin="round"/>
<path d="M660,840 Q470,860 360,760" fill="none" stroke="#D9CBB0" stroke-width="24" stroke-linecap="round" stroke-linejoin="round"/>
<path d="M660,840 Q820,810 980,690 Q1110,560 1150,360 Q1165,270 1140,235" fill="none" stroke="#b9a884" stroke-width="29" stroke-linecap="round" stroke-linejoin="round"/>
<path d="M660,840 Q820,810 980,690 Q1110,560 1150,360 Q1165,270 1140,235" fill="none" stroke="#D9CBB0" stroke-width="24" stroke-linecap="round" stroke-linejoin="round"/>
<path d="M300,470 Q250,250 420,150 Q620,150 640,330 Q620,470 470,500 Q360,520 300,470 Z" fill="none" stroke="#b9a884" stroke-width="25" stroke-linecap="round" stroke-linejoin="round"/>
<path d="M300,470 Q250,250 420,150 Q620,150 640,330 Q620,470 470,500 Q360,520 300,470 Z" fill="none" stroke="#D9CBB0" stroke-width="20" stroke-linecap="round" stroke-linejoin="round"/>
<path d="M300,560 Q250,760 380,860 Q560,900 640,800 Q660,640 520,580 Q400,540 300,560 Z" fill="none" stroke="#b9a884" stroke-width="25" stroke-linecap="round" stroke-linejoin="round"/>
<path d="M300,560 Q250,760 380,860 Q560,900 640,800 Q660,640 520,580 Q400,540 300,560 Z" fill="none" stroke="#D9CBB0" stroke-width="20" stroke-linecap="round" stroke-linejoin="round"/>
<path d="M700,820 Q860,790 1040,810" fill="none" stroke="#b9a884" stroke-width="23" stroke-linecap="round" stroke-linejoin="round"/>
<path d="M700,820 Q860,790 1040,810" fill="none" stroke="#D9CBB0" stroke-width="18" stroke-linecap="round" stroke-linejoin="round"/>
<path d="M360,600 Q480,575 560,620 Q600,720 520,810 Q400,840 340,770 Q320,680 360,600 Z" fill="#cdbfa3"/>
<text x="450" y="710" class="lbl" font-size="10" fill="#8a7c5a" text-anchor="middle">future&#160;pond</text>
<text x="930" y="330" class="lbl" font-size="14" fill="#6f7f53" text-anchor="middle" opacity=".85">OPEN&#160;MEADOW</text>
<circle cx="780" cy="300" r="15" fill="#3E6B4A" opacity=".85"/>
<circle cx="880" cy="250" r="13" fill="#3E6B4A" opacity=".85"/>
<circle cx="1000" cy="300" r="16" fill="#3E6B4A" opacity=".85"/>
<circle cx="820" cy="420" r="13" fill="#3E6B4A" opacity=".85"/>
<circle cx="960" cy="430" r="14" fill="#3E6B4A" opacity=".85"/>
<circle cx="720" cy="380" r="12" fill="#3E6B4A" opacity=".85"/>
<circle cx="1060" cy="380" r="13" fill="#3E6B4A" opacity=".85"/>
<g class="site" transform="translate(360.0,185.0) rotate(-18.0)"><title>Site 1 — Back-in</title><rect x="-12.0" y="-7.0" width="24" height="14" rx="2.5" fill="#3E6B4A" stroke="#fff" stroke-width="1"/><text class="num" y="0.5">1</text></g>
<g class="site" transform="translate(397.0,181.0) rotate(-18.0)"><title>Site 2 — Back-in</title><rect x="-12.0" y="-7.0" width="24" height="14" rx="2.5" fill="#3E6B4A" stroke="#fff" stroke-width="1"/><text class="num" y="0.5">2</text></g>
<g class="site" transform="translate(434.0,177.0) rotate(-18.0)"><title>Site 3 — Back-in</title><rect x="-12.0" y="-7.0" width="24" height="14" rx="2.5" fill="#3E6B4A" stroke="#fff" stroke-width="1"/><text class="num" y="0.5">3</text></g>
<g class="site" transform="translate(471.0,173.0) rotate(-18.0)"><title>Site 4 — Back-in</title><rect x="-12.0" y="-7.0" width="24" height="14" rx="2.5" fill="#3E6B4A" stroke="#fff" stroke-width="1"/><text class="num" y="0.5">4</text></g>
<g class="site" transform="translate(508.0,169.0) rotate(-18.0)"><title>Site 5 — Back-in</title><rect x="-12.0" y="-7.0" width="24" height="14" rx="2.5" fill="#3E6B4A" stroke="#fff" stroke-width="1"/><text class="num" y="0.5">5</text></g>
<g class="site" transform="translate(545.0,165.0) rotate(-18.0)"><title>Site 6 — Back-in</title><rect x="-12.0" y="-7.0" width="24" height="14" rx="2.5" fill="#3E6B4A" stroke="#fff" stroke-width="1"/><text class="num" y="0.5">6</text></g>
<g class="site" transform="translate(330.0,235.0) rotate(-18.0)"><title>Site 7 — Back-in</title><rect x="-12.0" y="-7.0" width="24" height="14" rx="2.5" fill="#3E6B4A" stroke="#fff" stroke-width="1"/><text class="num" y="0.5">7</text></g>
<g class="site" transform="translate(363.8,232.1) rotate(-18.0)"><title>Site 8 — Back-in</title><rect x="-12.0" y="-7.0" width="24" height="14" rx="2.5" fill="#3E6B4A" stroke="#fff" stroke-width="1"/><text class="num" y="0.5">8</text></g>
<g class="site" transform="translate(397.5,229.2) rotate(-18.0)"><title>Site 9 — Back-in</title><rect x="-12.0" y="-7.0" width="24" height="14" rx="2.5" fill="#3E6B4A" stroke="#fff" stroke-width="1"/><text class="num" y="0.5">9</text></g>
<g class="site" transform="translate(431.2,226.4) rotate(-18.0)"><title>Site 10 — Back-in</title><rect x="-12.0" y="-7.0" width="24" height="14" rx="2.5" fill="#3E6B4A" stroke="#fff" stroke-width="1"/><text class="num" y="0.5">10</text></g>
<g class="site" transform="translate(465.0,223.5) rotate(-18.0)"><title>Site 11 — Back-in</title><rect x="-12.0" y="-7.0" width="24" height="14" rx="2.5" fill="#3E6B4A" stroke="#fff" stroke-width="1"/><text class="num" y="0.5">11</text></g>
<g class="site" transform="translate(498.8,220.6) rotate(-18.0)"><title>Site 12 — Back-in</title><rect x="-12.0" y="-7.0" width="24" height="14" rx="2.5" fill="#3E6B4A" stroke="#fff" stroke-width="1"/><text class="num" y="0.5">12</text></g>
<g class="site" transform="translate(532.5,217.8) rotate(-18.0)"><title>Site 13 — Back-in</title><rect x="-12.0" y="-7.0" width="24" height="14" rx="2.5" fill="#3E6B4A" stroke="#fff" stroke-width="1"/><text class="num" y="0.5">13</text></g>
<g class="site" transform="translate(566.2,214.9) rotate(-18.0)"><title>Site 14 — Back-in</title><rect x="-12.0" y="-7.0" width="24" height="14" rx="2.5" fill="#3E6B4A" stroke="#fff" stroke-width="1"/><text class="num" y="0.5">14</text></g>
<g class="site" transform="translate(600.0,212.0) rotate(-18.0)"><title>Site 15 — Back-in</title><rect x="-12.0" y="-7.0" width="24" height="14" rx="2.5" fill="#3E6B4A" stroke="#fff" stroke-width="1"/><text class="num" y="0.5">15</text></g>
<g class="site" transform="translate(312.0,288.0) rotate(-18.0)"><title>Site 16 — Back-in</title><rect x="-12.0" y="-7.0" width="24" height="14" rx="2.5" fill="#3E6B4A" stroke="#fff" stroke-width="1"/><text class="num" y="0.5">16</text></g>
<g class="site" transform="translate(345.3,285.1) rotate(-18.0)"><title>Site 17 — Back-in</title><rect x="-12.0" y="-7.0" width="24" height="14" rx="2.5" fill="#3E6B4A" stroke="#fff" stroke-width="1"/><text class="num" y="0.5">17</text></g>
<g class="site" transform="translate(378.7,282.2) rotate(-18.0)"><title>Site 18 — Back-in</title><rect x="-12.0" y="-7.0" width="24" height="14" rx="2.5" fill="#3E6B4A" stroke="#fff" stroke-width="1"/><text class="num" y="0.5">18</text></g>
<g class="site" transform="translate(412.0,279.3) rotate(-18.0)"><title>Site 19 — Back-in</title><rect x="-12.0" y="-7.0" width="24" height="14" rx="2.5" fill="#3E6B4A" stroke="#fff" stroke-width="1"/><text class="num" y="0.5">19</text></g>
<g class="site" transform="translate(445.3,276.4) rotate(-18.0)"><title>Site 20 — Back-in</title><rect x="-12.0" y="-7.0" width="24" height="14" rx="2.5" fill="#3E6B4A" stroke="#fff" stroke-width="1"/><text class="num" y="0.5">20</text></g>
<g class="site" transform="translate(478.7,273.6) rotate(-18.0)"><title>Site 21 — Back-in</title><rect x="-12.0" y="-7.0" width="24" height="14" rx="2.5" fill="#3E6B4A" stroke="#fff" stroke-width="1"/><text class="num" y="0.5">21</text></g>
<g class="site" transform="translate(512.0,270.7) rotate(-18.0)"><title>Site 22 — Back-in</title><rect x="-12.0" y="-7.0" width="24" height="14" rx="2.5" fill="#3E6B4A" stroke="#fff" stroke-width="1"/><text class="num" y="0.5">22</text></g>
<g class="site" transform="translate(545.3,267.8) rotate(-18.0)"><title>Site 23 — Back-in</title><rect x="-12.0" y="-7.0" width="24" height="14" rx="2.5" fill="#3E6B4A" stroke="#fff" stroke-width="1"/><text class="num" y="0.5">23</text></g>
<g class="site" transform="translate(578.7,264.9) rotate(-18.0)"><title>Site 24 — Back-in</title><rect x="-12.0" y="-7.0" width="24" height="14" rx="2.5" fill="#3E6B4A" stroke="#fff" stroke-width="1"/><text class="num" y="0.5">24</text></g>
<g class="site" transform="translate(612.0,262.0) rotate(-18.0)"><title>Site 25 — Back-in</title><rect x="-12.0" y="-7.0" width="24" height="14" rx="2.5" fill="#3E6B4A" stroke="#fff" stroke-width="1"/><text class="num" y="0.5">25</text></g>
<g class="site" transform="translate(315.0,340.0) rotate(-18.0)"><title>Site 26 — Back-in</title><rect x="-12.0" y="-7.0" width="24" height="14" rx="2.5" fill="#3E6B4A" stroke="#fff" stroke-width="1"/><text class="num" y="0.5">26</text></g>
<g class="site" transform="translate(346.7,337.2) rotate(-18.0)"><title>Site 27 — Back-in</title><rect x="-12.0" y="-7.0" width="24" height="14" rx="2.5" fill="#3E6B4A" stroke="#fff" stroke-width="1"/><text class="num" y="0.5">27</text></g>
<g class="site" transform="translate(378.3,334.4) rotate(-18.0)"><title>Site 28 — Back-in</title><rect x="-12.0" y="-7.0" width="24" height="14" rx="2.5" fill="#3E6B4A" stroke="#fff" stroke-width="1"/><text class="num" y="0.5">28</text></g>
<g class="site" transform="translate(410.0,331.7) rotate(-18.0)"><title>Site 29 — Back-in</title><rect x="-12.0" y="-7.0" width="24" height="14" rx="2.5" fill="#3E6B4A" stroke="#fff" stroke-width="1"/><text class="num" y="0.5">29</text></g>
<g class="site" transform="translate(441.7,328.9) rotate(-18.0)"><title>Site 30 — Back-in</title><rect x="-12.0" y="-7.0" width="24" height="14" rx="2.5" fill="#3E6B4A" stroke="#fff" stroke-width="1"/><text class="num" y="0.5">30</text></g>
<g class="site" transform="translate(473.3,326.1) rotate(-18.0)"><title>Site 31 — Back-in</title><rect x="-12.0" y="-7.0" width="24" height="14" rx="2.5" fill="#3E6B4A" stroke="#fff" stroke-width="1"/><text class="num" y="0.5">31</text></g>
<g class="site" transform="translate(505.0,323.3) rotate(-18.0)"><title>Site 32 — Back-in</title><rect x="-12.0" y="-7.0" width="24" height="14" rx="2.5" fill="#3E6B4A" stroke="#fff" stroke-width="1"/><text class="num" y="0.5">32</text></g>
<g class="site" transform="translate(536.7,320.6) rotate(-18.0)"><title>Site 33 — Back-in</title><rect x="-12.0" y="-7.0" width="24" height="14" rx="2.5" fill="#3E6B4A" stroke="#fff" stroke-width="1"/><text class="num" y="0.5">33</text></g>
<g class="site" transform="translate(568.3,317.8) rotate(-18.0)"><title>Site 34 — Back-in</title><rect x="-12.0" y="-7.0" width="24" height="14" rx="2.5" fill="#3E6B4A" stroke="#fff" stroke-width="1"/><text class="num" y="0.5">34</text></g>
<g class="site" transform="translate(600.0,315.0) rotate(-18.0)"><title>Site 35 — Back-in</title><rect x="-12.0" y="-7.0" width="24" height="14" rx="2.5" fill="#3E6B4A" stroke="#fff" stroke-width="1"/><text class="num" y="0.5">35</text></g>
<g class="site" transform="translate(330.0,392.0) rotate(-18.0)"><title>Site 36 — Back-in</title><rect x="-12.0" y="-7.0" width="24" height="14" rx="2.5" fill="#3E6B4A" stroke="#fff" stroke-width="1"/><text class="num" y="0.5">36</text></g>
<g class="site" transform="translate(363.6,388.6) rotate(-18.0)"><title>Site 37 — Back-in</title><rect x="-12.0" y="-7.0" width="24" height="14" rx="2.5" fill="#3E6B4A" stroke="#fff" stroke-width="1"/><text class="num" y="0.5">37</text></g>
<g class="site" transform="translate(397.1,385.1) rotate(-18.0)"><title>Site 38 — Back-in</title><rect x="-12.0" y="-7.0" width="24" height="14" rx="2.5" fill="#3E6B4A" stroke="#fff" stroke-width="1"/><text class="num" y="0.5">38</text></g>
<g class="site" transform="translate(430.7,381.7) rotate(-18.0)"><title>Site 39 — Back-in</title><rect x="-12.0" y="-7.0" width="24" height="14" rx="2.5" fill="#3E6B4A" stroke="#fff" stroke-width="1"/><text class="num" y="0.5">39</text></g>
<g class="site" transform="translate(464.3,378.3) rotate(-18.0)"><title>Site 40 — Back-in</title><rect x="-12.0" y="-7.0" width="24" height="14" rx="2.5" fill="#3E6B4A" stroke="#fff" stroke-width="1"/><text class="num" y="0.5">40</text></g>
<g class="site" transform="translate(497.9,374.9) rotate(-18.0)"><title>Site 41 — Back-in</title><rect x="-12.0" y="-7.0" width="24" height="14" rx="2.5" fill="#3E6B4A" stroke="#fff" stroke-width="1"/><text class="num" y="0.5">41</text></g>
<g class="site" transform="translate(531.4,371.4) rotate(-18.0)"><title>Site 42 — Back-in</title><rect x="-12.0" y="-7.0" width="24" height="14" rx="2.5" fill="#3E6B4A" stroke="#fff" stroke-width="1"/><text class="num" y="0.5">42</text></g>
<g class="site" transform="translate(565.0,368.0) rotate(-18.0)"><title>Site 43 — Back-in</title><rect x="-12.0" y="-7.0" width="24" height="14" rx="2.5" fill="#3E6B4A" stroke="#fff" stroke-width="1"/><text class="num" y="0.5">43</text></g>
<g class="site" transform="translate(355.0,442.0) rotate(-18.0)"><title>Site 44 — Back-in</title><rect x="-12.0" y="-7.0" width="24" height="14" rx="2.5" fill="#3E6B4A" stroke="#fff" stroke-width="1"/><text class="num" y="0.5">44</text></g>
<g class="site" transform="translate(393.8,437.0) rotate(-18.0)"><title>Site 45 — Back-in</title><rect x="-12.0" y="-7.0" width="24" height="14" rx="2.5" fill="#3E6B4A" stroke="#fff" stroke-width="1"/><text class="num" y="0.5">45</text></g>
<g class="site" transform="translate(432.5,432.0) rotate(-18.0)"><title>Site 46 — Back-in</title><rect x="-12.0" y="-7.0" width="24" height="14" rx="2.5" fill="#3E6B4A" stroke="#fff" stroke-width="1"/><text class="num" y="0.5">46</text></g>
<g class="site" transform="translate(471.2,427.0) rotate(-18.0)"><title>Site 47 — Back-in</title><rect x="-12.0" y="-7.0" width="24" height="14" rx="2.5" fill="#3E6B4A" stroke="#fff" stroke-width="1"/><text class="num" y="0.5">47</text></g>
<g class="site" transform="translate(510.0,422.0) rotate(-18.0)"><title>Site 48 — Back-in</title><rect x="-12.0" y="-7.0" width="24" height="14" rx="2.5" fill="#3E6B4A" stroke="#fff" stroke-width="1"/><text class="num" y="0.5">48</text></g>
<g class="site" transform="translate(300.0,585.0) rotate(80.0)"><title>Site 49 — Back-in</title><rect x="-12.0" y="-7.0" width="24" height="14" rx="2.5" fill="#3E6B4A" stroke="#fff" stroke-width="1"/><text class="num" y="0.5">49</text></g>
<g class="site" transform="translate(303.8,612.5) rotate(80.0)"><title>Site 50 — Back-in</title><rect x="-12.0" y="-7.0" width="24" height="14" rx="2.5" fill="#3E6B4A" stroke="#fff" stroke-width="1"/><text class="num" y="0.5">50</text></g>
<g class="site" transform="translate(307.5,640.0) rotate(80.0)"><title>Site 51 — Back-in</title><rect x="-12.0" y="-7.0" width="24" height="14" rx="2.5" fill="#3E6B4A" stroke="#fff" stroke-width="1"/><text class="num" y="0.5">51</text></g>
<g class="site" transform="translate(311.2,667.5) rotate(80.0)"><title>Site 52 — Back-in</title><rect x="-12.0" y="-7.0" width="24" height="14" rx="2.5" fill="#3E6B4A" stroke="#fff" stroke-width="1"/><text class="num" y="0.5">52</text></g>
<g class="site" transform="translate(315.0,695.0) rotate(80.0)"><title>Site 53 — Back-in</title><rect x="-12.0" y="-7.0" width="24" height="14" rx="2.5" fill="#3E6B4A" stroke="#fff" stroke-width="1"/><text class="num" y="0.5">53</text></g>
<g class="site" transform="translate(318.8,722.5) rotate(80.0)"><title>Site 54 — Back-in</title><rect x="-12.0" y="-7.0" width="24" height="14" rx="2.5" fill="#3E6B4A" stroke="#fff" stroke-width="1"/><text class="num" y="0.5">54</text></g>
<g class="site" transform="translate(322.5,750.0) rotate(80.0)"><title>Site 55 — Back-in</title><rect x="-12.0" y="-7.0" width="24" height="14" rx="2.5" fill="#3E6B4A" stroke="#fff" stroke-width="1"/><text class="num" y="0.5">55</text></g>
<g class="site" transform="translate(326.2,777.5) rotate(80.0)"><title>Site 56 — Back-in</title><rect x="-12.0" y="-7.0" width="24" height="14" rx="2.5" fill="#3E6B4A" stroke="#fff" stroke-width="1"/><text class="num" y="0.5">56</text></g>
<g class="site" transform="translate(330.0,805.0) rotate(80.0)"><title>Site 57 — Back-in</title><rect x="-12.0" y="-7.0" width="24" height="14" rx="2.5" fill="#3E6B4A" stroke="#fff" stroke-width="1"/><text class="num" y="0.5">57</text></g>
<g class="site" transform="translate(355.0,840.0) rotate(-8.0)"><title>Site 58 — Back-in</title><rect x="-12.0" y="-7.0" width="24" height="14" rx="2.5" fill="#3E6B4A" stroke="#fff" stroke-width="1"/><text class="num" y="0.5">58</text></g>
<g class="site" transform="translate(389.2,835.8) rotate(-8.0)"><title>Site 59 — Back-in</title><rect x="-12.0" y="-7.0" width="24" height="14" rx="2.5" fill="#3E6B4A" stroke="#fff" stroke-width="1"/><text class="num" y="0.5">59</text></g>
<g class="site" transform="translate(423.3,831.7) rotate(-8.0)"><title>Site 60 — Back-in</title><rect x="-12.0" y="-7.0" width="24" height="14" rx="2.5" fill="#3E6B4A" stroke="#fff" stroke-width="1"/><text class="num" y="0.5">60</text></g>
<g class="site" transform="translate(457.5,827.5) rotate(-8.0)"><title>Site 61 — Back-in</title><rect x="-12.0" y="-7.0" width="24" height="14" rx="2.5" fill="#3E6B4A" stroke="#fff" stroke-width="1"/><text class="num" y="0.5">61</text></g>
<g class="site" transform="translate(491.7,823.3) rotate(-8.0)"><title>Site 62 — Back-in</title><rect x="-12.0" y="-7.0" width="24" height="14" rx="2.5" fill="#3E6B4A" stroke="#fff" stroke-width="1"/><text class="num" y="0.5">62</text></g>
<g class="site" transform="translate(525.8,819.2) rotate(-8.0)"><title>Site 63 — Back-in</title><rect x="-12.0" y="-7.0" width="24" height="14" rx="2.5" fill="#3E6B4A" stroke="#fff" stroke-width="1"/><text class="num" y="0.5">63</text></g>
<g class="site" transform="translate(560.0,815.0) rotate(-8.0)"><title>Site 64 — Back-in</title><rect x="-12.0" y="-7.0" width="24" height="14" rx="2.5" fill="#3E6B4A" stroke="#fff" stroke-width="1"/><text class="num" y="0.5">64</text></g>
<g class="site" transform="translate(600.0,640.0) rotate(90.0)"><title>Site 65 — Back-in</title><rect x="-12.0" y="-7.0" width="24" height="14" rx="2.5" fill="#3E6B4A" stroke="#fff" stroke-width="1"/><text class="num" y="0.5">65</text></g>
<g class="site" transform="translate(600.0,680.0) rotate(90.0)"><title>Site 66 — Back-in</title><rect x="-12.0" y="-7.0" width="24" height="14" rx="2.5" fill="#3E6B4A" stroke="#fff" stroke-width="1"/><text class="num" y="0.5">66</text></g>
<g class="site" transform="translate(600.0,720.0) rotate(90.0)"><title>Site 67 — Back-in</title><rect x="-12.0" y="-7.0" width="24" height="14" rx="2.5" fill="#3E6B4A" stroke="#fff" stroke-width="1"/><text class="num" y="0.5">67</text></g>
<g class="site" transform="translate(600.0,760.0) rotate(90.0)"><title>Site 68 — Back-in</title><rect x="-12.0" y="-7.0" width="24" height="14" rx="2.5" fill="#3E6B4A" stroke="#fff" stroke-width="1"/><text class="num" y="0.5">68</text></g>
<g class="site" transform="translate(700.0,755.0) rotate(-6.0)"><title>Site 69 — Pull-thru</title><rect x="-12.0" y="-7.0" width="24" height="14" rx="2.5" fill="#E0883A" stroke="#fff" stroke-width="1"/><text class="num" y="0.5">69</text></g>
<g class="site" transform="translate(723.9,757.5) rotate(-6.0)"><title>Site 70 — Pull-thru</title><rect x="-12.0" y="-7.0" width="24" height="14" rx="2.5" fill="#E0883A" stroke="#fff" stroke-width="1"/><text class="num" y="0.5">70</text></g>
<g class="site" transform="translate(747.9,760.0) rotate(-6.0)"><title>Site 71 — Pull-thru</title><rect x="-12.0" y="-7.0" width="24" height="14" rx="2.5" fill="#E0883A" stroke="#fff" stroke-width="1"/><text class="num" y="0.5">71</text></g>
<g class="site" transform="translate(771.8,762.5) rotate(-6.0)"><title>Site 72 — Pull-thru</title><rect x="-12.0" y="-7.0" width="24" height="14" rx="2.5" fill="#E0883A" stroke="#fff" stroke-width="1"/><text class="num" y="0.5">72</text></g>
<g class="site" transform="translate(795.7,765.0) rotate(-6.0)"><title>Site 73 — Pull-thru</title><rect x="-12.0" y="-7.0" width="24" height="14" rx="2.5" fill="#E0883A" stroke="#fff" stroke-width="1"/><text class="num" y="0.5">73</text></g>
<g class="site" transform="translate(819.6,767.5) rotate(-6.0)"><title>Site 74 — Pull-thru</title><rect x="-12.0" y="-7.0" width="24" height="14" rx="2.5" fill="#E0883A" stroke="#fff" stroke-width="1"/><text class="num" y="0.5">74</text></g>
<g class="site" transform="translate(843.6,770.0) rotate(-6.0)"><title>Site 75 — Pull-thru</title><rect x="-12.0" y="-7.0" width="24" height="14" rx="2.5" fill="#E0883A" stroke="#fff" stroke-width="1"/><text class="num" y="0.5">75</text></g>
<g class="site" transform="translate(867.5,772.5) rotate(-6.0)"><title>Site 76 — Pull-thru</title><rect x="-12.0" y="-7.0" width="24" height="14" rx="2.5" fill="#E0883A" stroke="#fff" stroke-width="1"/><text class="num" y="0.5">76</text></g>
<g class="site" transform="translate(891.4,775.0) rotate(-6.0)"><title>Site 77 — Pull-thru</title><rect x="-12.0" y="-7.0" width="24" height="14" rx="2.5" fill="#E0883A" stroke="#fff" stroke-width="1"/><text class="num" y="0.5">77</text></g>
<g class="site" transform="translate(915.4,777.5) rotate(-6.0)"><title>Site 78 — Pull-thru</title><rect x="-12.0" y="-7.0" width="24" height="14" rx="2.5" fill="#E0883A" stroke="#fff" stroke-width="1"/><text class="num" y="0.5">78</text></g>
<g class="site" transform="translate(939.3,780.0) rotate(-6.0)"><title>Site 79 — Pull-thru</title><rect x="-12.0" y="-7.0" width="24" height="14" rx="2.5" fill="#E0883A" stroke="#fff" stroke-width="1"/><text class="num" y="0.5">79</text></g>
<g class="site" transform="translate(963.2,782.5) rotate(-6.0)"><title>Site 80 — Pull-thru</title><rect x="-12.0" y="-7.0" width="24" height="14" rx="2.5" fill="#E0883A" stroke="#fff" stroke-width="1"/><text class="num" y="0.5">80</text></g>
<g class="site" transform="translate(987.1,785.0) rotate(-6.0)"><title>Site 81 — Pull-thru</title><rect x="-12.0" y="-7.0" width="24" height="14" rx="2.5" fill="#E0883A" stroke="#fff" stroke-width="1"/><text class="num" y="0.5">81</text></g>
<g class="site" transform="translate(1011.1,787.5) rotate(-6.0)"><title>Site 82 — Pull-thru</title><rect x="-12.0" y="-7.0" width="24" height="14" rx="2.5" fill="#E0883A" stroke="#fff" stroke-width="1"/><text class="num" y="0.5">82</text></g>
<g class="site" transform="translate(1035.0,790.0) rotate(-6.0)"><title>Site 83 — Pull-thru</title><rect x="-12.0" y="-7.0" width="24" height="14" rx="2.5" fill="#E0883A" stroke="#fff" stroke-width="1"/><text class="num" y="0.5">83</text></g>
<g class="site" transform="translate(720.0,705.0) rotate(-4.0)"><title>Site 84 — Pull-thru</title><rect x="-12.0" y="-7.0" width="24" height="14" rx="2.5" fill="#E0883A" stroke="#fff" stroke-width="1"/><text class="num" y="0.5">84</text></g>
<g class="site" transform="translate(745.5,706.8) rotate(-4.0)"><title>Site 85 — Pull-thru</title><rect x="-12.0" y="-7.0" width="24" height="14" rx="2.5" fill="#E0883A" stroke="#fff" stroke-width="1"/><text class="num" y="0.5">85</text></g>
<g class="site" transform="translate(770.9,708.6) rotate(-4.0)"><title>Site 86 — Pull-thru</title><rect x="-12.0" y="-7.0" width="24" height="14" rx="2.5" fill="#E0883A" stroke="#fff" stroke-width="1"/><text class="num" y="0.5">86</text></g>
<g class="site" transform="translate(796.4,710.5) rotate(-4.0)"><title>Site 87 — Pull-thru</title><rect x="-12.0" y="-7.0" width="24" height="14" rx="2.5" fill="#E0883A" stroke="#fff" stroke-width="1"/><text class="num" y="0.5">87</text></g>
<g class="site" transform="translate(821.8,712.3) rotate(-4.0)"><title>Site 88 — Pull-thru</title><rect x="-12.0" y="-7.0" width="24" height="14" rx="2.5" fill="#E0883A" stroke="#fff" stroke-width="1"/><text class="num" y="0.5">88</text></g>
<g class="site" transform="translate(847.3,714.1) rotate(-4.0)"><title>Site 89 — Pull-thru</title><rect x="-12.0" y="-7.0" width="24" height="14" rx="2.5" fill="#E0883A" stroke="#fff" stroke-width="1"/><text class="num" y="0.5">89</text></g>
<g class="site" transform="translate(872.7,715.9) rotate(-4.0)"><title>Site 90 — Pull-thru</title><rect x="-12.0" y="-7.0" width="24" height="14" rx="2.5" fill="#E0883A" stroke="#fff" stroke-width="1"/><text class="num" y="0.5">90</text></g>
<g class="site" transform="translate(898.2,717.7) rotate(-4.0)"><title>Site 91 — Pull-thru</title><rect x="-12.0" y="-7.0" width="24" height="14" rx="2.5" fill="#E0883A" stroke="#fff" stroke-width="1"/><text class="num" y="0.5">91</text></g>
<g class="site" transform="translate(923.6,719.5) rotate(-4.0)"><title>Site 92 — Pull-thru</title><rect x="-12.0" y="-7.0" width="24" height="14" rx="2.5" fill="#E0883A" stroke="#fff" stroke-width="1"/><text class="num" y="0.5">92</text></g>
<g class="site" transform="translate(949.1,721.4) rotate(-4.0)"><title>Site 93 — Pull-thru</title><rect x="-12.0" y="-7.0" width="24" height="14" rx="2.5" fill="#E0883A" stroke="#fff" stroke-width="1"/><text class="num" y="0.5">93</text></g>
<g class="site" transform="translate(974.5,723.2) rotate(-4.0)"><title>Site 94 — Pull-thru</title><rect x="-12.0" y="-7.0" width="24" height="14" rx="2.5" fill="#E0883A" stroke="#fff" stroke-width="1"/><text class="num" y="0.5">94</text></g>
<g class="site" transform="translate(1000.0,725.0) rotate(-4.0)"><title>Site 95 — Pull-thru</title><rect x="-12.0" y="-7.0" width="24" height="14" rx="2.5" fill="#E0883A" stroke="#fff" stroke-width="1"/><text class="num" y="0.5">95</text></g>
<g class="site" transform="translate(1080.0,640.0) rotate(80.0)"><title>Site 96 — Back-in</title><rect x="-12.0" y="-7.0" width="24" height="14" rx="2.5" fill="#3E6B4A" stroke="#fff" stroke-width="1"/><text class="num" y="0.5">96</text></g>
<g class="site" transform="translate(1088.0,606.0) rotate(80.0)"><title>Site 97 — Back-in</title><rect x="-12.0" y="-7.0" width="24" height="14" rx="2.5" fill="#3E6B4A" stroke="#fff" stroke-width="1"/><text class="num" y="0.5">97</text></g>
<g class="site" transform="translate(1096.0,572.0) rotate(80.0)"><title>Site 98 — Back-in</title><rect x="-12.0" y="-7.0" width="24" height="14" rx="2.5" fill="#3E6B4A" stroke="#fff" stroke-width="1"/><text class="num" y="0.5">98</text></g>
<g class="site" transform="translate(1104.0,538.0) rotate(80.0)"><title>Site 99 — Back-in</title><rect x="-12.0" y="-7.0" width="24" height="14" rx="2.5" fill="#3E6B4A" stroke="#fff" stroke-width="1"/><text class="num" y="0.5">99</text></g>
<g class="site" transform="translate(1112.0,504.0) rotate(80.0)"><title>Site 100 — Back-in</title><rect x="-12.0" y="-7.0" width="24" height="14" rx="2.5" fill="#3E6B4A" stroke="#fff" stroke-width="1"/><text class="num" y="0.5">100</text></g>
<g class="site" transform="translate(1120.0,470.0) rotate(80.0)"><title>Site 101 — Back-in</title><rect x="-12.0" y="-7.0" width="24" height="14" rx="2.5" fill="#3E6B4A" stroke="#fff" stroke-width="1"/><text class="num" y="0.5">101</text></g>
<g transform="translate(905,600) rotate(-7)"><rect x="-150" y="-34" width="300" height="68" rx="8" fill="#c9d9aa" stroke="#3E6B4A" stroke-width="2" stroke-dasharray="2 5"/><text x="0" y="3" class="lbl" font-size="12" fill="#3E6B4A" text-anchor="middle">Dog&#160;Park</text></g>
<g filter="url(#sf)"><rect x="1095" y="175" width="96" height="40" rx="5" fill="#fff" stroke="#E0883A" stroke-width="3"/><text x="1143" y="199" font-size="13" font-weight="700" fill="#1C3B29" text-anchor="middle">Office</text></g>
<g filter="url(#sf)"><path d="M720,455 c-12,-20 -17,-28 -17,-37 a17,17 0 1 1 34,0 c0,9 -5,17 -17,37 Z" fill="#3E6B4A"/><circle cx="720" cy="418" r="11.5" fill="#fff"/><text x="720" y="418" font-size="13" font-weight="700" fill="#3E6B4A" text-anchor="middle" dominant-baseline="central">B</text></g>
<text x="720" y="470" font-size="12" font-weight="600" fill="#2A2117" text-anchor="middle">Bath / Laundry</text>
<g filter="url(#sf)"><path d="M700,520 c-12,-20 -17,-28 -17,-37 a17,17 0 1 1 34,0 c0,9 -5,17 -17,37 Z" fill="#8AA38C"/><circle cx="700" cy="483" r="11.5" fill="#fff"/><text x="700" y="483" font-size="13" font-weight="700" fill="#8AA38C" text-anchor="middle" dominant-baseline="central">M</text></g>
<text x="700" y="535" font-size="12" font-weight="600" fill="#2A2117" text-anchor="middle">Mail</text>
<g filter="url(#sf)"><path d="M660,805 c-12,-20 -17,-28 -17,-37 a17,17 0 1 1 34,0 c0,9 -5,17 -17,37 Z" fill="#C26A1F"/><circle cx="660" cy="768" r="11.5" fill="#fff"/><text x="660" y="768" font-size="13" font-weight="700" fill="#C26A1F" text-anchor="middle" dominant-baseline="central">T</text></g>
<text x="660" y="820" font-size="12" font-weight="600" fill="#2A2117" text-anchor="middle">Dumpster</text>
<path d="M600,1120 L606,1000" fill="none" stroke="#C26A1F" stroke-width="3.5" stroke-linecap="round" marker-end="url(#arrow)" opacity=".9"/>
<path d="M690,720 Q560,690 470,610" fill="none" stroke="#C26A1F" stroke-width="3.5" stroke-linecap="round" marker-end="url(#arrow)" opacity=".9"/>
<path d="M1120,520 L1135,360" fill="none" stroke="#C26A1F" stroke-width="3.5" stroke-linecap="round" marker-end="url(#arrow)" opacity=".9"/>
<rect x="28" y="24" width="332" height="70" rx="12" fill="#122619" opacity=".85"/>
<text x="48" y="58" font-family="Bricolage Grotesque, Inter, sans-serif" font-weight="800" font-size="29" fill="#EDE6D6">Lazy Acres RV Park</text>
<text x="50" y="81" class="lbl" font-size="13" fill="#E0883A">Site Map</text>
<g transform="translate(1215,70)"><circle r="22" fill="#fff" stroke="#b9a884"/><path d="M0,-15 L7,8 L0,2 L-7,8 Z" fill="#C26A1F"/><text y="20" font-size="9" font-weight="700" fill="#2A2117" text-anchor="middle">N</text></g>
<rect x="44" y="1040" width="300" height="118" rx="12" fill="#fff" stroke="#b9a884" opacity=".97"/>
<text x="60" y="1066" class="lbl" font-size="11" fill="#2A2117">Legend</text>
<rect x="60" y="1078" width="22" height="13" rx="2.5" fill="#E0883A" stroke="#fff"/><text x="90" y="1088" font-size="11" fill="#2A2117">Pull-thru site</text>
<rect x="60" y="1098" width="22" height="13" rx="2.5" fill="#3E6B4A" stroke="#fff"/><text x="90" y="1108" font-size="11" fill="#2A2117">Back-in site</text>
<rect x="60" y="1118" width="22" height="13" rx="2.5" fill="#cdbfa3" stroke="#b9a884"/><text x="90" y="1128" font-size="11" fill="#2A2117">Future pond</text>
<line x1="62" y1="1143" x2="84" y2="1143" stroke="#C26A1F" stroke-width="3" marker-end="url(#arrow)"/><text x="90" y="1147" font-size="11" fill="#2A2117">One-way flow</text>
<text x="214" y="1088" font-size="10.5" fill="#2A2117">O Office  B Bath/Laundry</text>
<text x="214" y="1108" font-size="10.5" fill="#2A2117">M Mailbox  T Dumpster</text>
<text x="214" y="1128" font-size="10.5" fill="#2A2117">Dog park (fenced)</text>
<text x="1236" y="1174" font-size="11" fill="#9a8b73" text-anchor="end" font-style="italic">Draft layout — share real site numbers/types to finalize.</text>
</svg>